<svg width="96" height="100" viewBox="0 0 96 100" fill="none" xmlns="http://www.w3.org/2000/svg">
<path d="M40 60H50V25H40V60ZM55 52.5H65V30H55V52.5ZM25 50H35V30H25V50ZM15 100V78.5C10.25 74.1667 6.5625 69.1042 3.9375 63.3125C1.3125 57.5208 0 51.4167 0 45C0 32.5 4.375 21.875 13.125 13.125C21.875 4.375 32.5 0 45 0C55.4167 0 64.6458 3.0625 72.6875 9.1875C80.7292 15.3125 85.9583 23.2917 88.375 33.125L94.875 58.75C95.2917 60.3333 95 61.7708 94 63.0625C93 64.3542 91.6667 65 90 65H80V80C80 82.75 79.0208 85.1042 77.0625 87.0625C75.1042 89.0208 72.75 90 70 90H60V100H50V80H70V55H83.5L78.75 35.625C76.8333 28.0417 72.75 21.875 66.5 17.125C60.25 12.375 53.0833 10 45 10C35.3333 10 27.0833 13.375 20.25 20.125C13.4167 26.875 10 35.0833 10 44.75C10 49.75 11.0208 54.5 13.0625 59C15.1042 63.5 18 67.5 21.75 71L25 74V100H15Z" fill="#352D74"/>
</svg>
