<svg width="100" height="100" viewBox="0 0 100 100" fill="none" xmlns="http://www.w3.org/2000/svg">
<path d="M50 100C43.1667 100 36.7083 98.6875 30.625 96.0625C24.5417 93.4375 19.2292 89.8542 14.6875 85.3125C10.1458 80.7708 6.5625 75.4583 3.9375 69.375C1.3125 63.2917 0 56.8333 0 50C0 43.0833 1.3125 36.6042 3.9375 30.5625C6.5625 24.5208 10.1458 19.2292 14.6875 14.6875C19.2292 10.1458 24.5417 6.5625 30.625 3.9375C36.7083 1.3125 43.1667 0 50 0C56.9167 0 63.3958 1.3125 69.4375 3.9375C75.4792 6.5625 80.7708 10.1458 85.3125 14.6875C89.8542 19.2292 93.4375 24.5208 96.0625 30.5625C98.6875 36.6042 100 43.0833 100 50C100 56.8333 98.6875 63.2917 96.0625 69.375C93.4375 75.4583 89.8542 80.7708 85.3125 85.3125C80.7708 89.8542 75.4792 93.4375 69.4375 96.0625C63.3958 98.6875 56.9167 100 50 100ZM50 89.75C52.1667 86.75 54.0417 83.625 55.625 80.375C57.2083 77.125 58.5 73.6667 59.5 70H40.5C41.5 73.6667 42.7917 77.125 44.375 80.375C45.9583 83.625 47.8333 86.75 50 89.75ZM37 87.75C35.5 85 34.1875 82.1458 33.0625 79.1875C31.9375 76.2292 31 73.1667 30.25 70H15.5C17.9167 74.1667 20.9375 77.7917 24.5625 80.875C28.1875 83.9583 32.3333 86.25 37 87.75ZM63 87.75C67.6667 86.25 71.8125 83.9583 75.4375 80.875C79.0625 77.7917 82.0833 74.1667 84.5 70H69.75C69 73.1667 68.0625 76.2292 66.9375 79.1875C65.8125 82.1458 64.5 85 63 87.75ZM11.25 60H28.25C28 58.3333 27.8125 56.6875 27.6875 55.0625C27.5625 53.4375 27.5 51.75 27.5 50C27.5 48.25 27.5625 46.5625 27.6875 44.9375C27.8125 43.3125 28 41.6667 28.25 40H11.25C10.8333 41.6667 10.5208 43.3125 10.3125 44.9375C10.1042 46.5625 10 48.25 10 50C10 51.75 10.1042 53.4375 10.3125 55.0625C10.5208 56.6875 10.8333 58.3333 11.25 60ZM38.25 60H61.75C62 58.3333 62.1875 56.6875 62.3125 55.0625C62.4375 53.4375 62.5 51.75 62.5 50C62.5 48.25 62.4375 46.5625 62.3125 44.9375C62.1875 43.3125 62 41.6667 61.75 40H38.25C38 41.6667 37.8125 43.3125 37.6875 44.9375C37.5625 46.5625 37.5 48.25 37.5 50C37.5 51.75 37.5625 53.4375 37.6875 55.0625C37.8125 56.6875 38 58.3333 38.25 60ZM71.75 60H88.75C89.1667 58.3333 89.4792 56.6875 89.6875 55.0625C89.8958 53.4375 90 51.75 90 50C90 48.25 89.8958 46.5625 89.6875 44.9375C89.4792 43.3125 89.1667 41.6667 88.75 40H71.75C72 41.6667 72.1875 43.3125 72.3125 44.9375C72.4375 46.5625 72.5 48.25 72.5 50C72.5 51.75 72.4375 53.4375 72.3125 55.0625C72.1875 56.6875 72 58.3333 71.75 60ZM69.75 30H84.5C82.0833 25.8333 79.0625 22.2083 75.4375 19.125C71.8125 16.0417 67.6667 13.75 63 12.25C64.5 15 65.8125 17.8542 66.9375 20.8125C68.0625 23.7708 69 26.8333 69.75 30ZM40.5 30H59.5C58.5 26.3333 57.2083 22.875 55.625 19.625C54.0417 16.375 52.1667 13.25 50 10.25C47.8333 13.25 45.9583 16.375 44.375 19.625C42.7917 22.875 41.5 26.3333 40.5 30ZM15.5 30H30.25C31 26.8333 31.9375 23.7708 33.0625 20.8125C34.1875 17.8542 35.5 15 37 12.25C32.3333 13.75 28.1875 16.0417 24.5625 19.125C20.9375 22.2083 17.9167 25.8333 15.5 30Z" fill="#352D74"/>
</svg>
