<svg width="90" height="90" viewBox="0 0 90 90" fill="none" xmlns="http://www.w3.org/2000/svg">
<path d="M0 90V80H90V90H0ZM12.125 42C9.70833 39.75 7.9375 37.0833 6.8125 34C5.6875 30.9167 5.125 27.75 5.125 24.5C5.125 17.75 7.4375 11.9792 12.0625 7.1875C16.6875 2.39583 22.3333 0 29 0C32 0 34.875 0.541667 37.625 1.625C40.375 2.70833 42.8333 4.29167 45 6.375C47.1667 4.29167 49.625 2.70833 52.375 1.625C55.125 0.541667 58 0 61 0C67.75 0 73.4375 2.41667 78.0625 7.25C82.6875 12.0833 85 17.875 85 24.625C85 27.875 84.3958 30.9792 83.1875 33.9375C81.9792 36.8958 80.25 39.5417 78 41.875L51.875 67.25C50.9583 68.1667 49.9167 68.8542 48.75 69.3125C47.5833 69.7708 46.3333 70 45 70C43.6667 70 42.4167 69.7708 41.25 69.3125C40.0833 68.8542 39.0417 68.1667 38.125 67.25L12.125 42ZM19.125 35L45 60L71 34.875C72.4167 33.5417 73.4583 31.9792 74.125 30.1875C74.7917 28.3958 75.125 26.5417 75.125 24.625C75.125 20.625 73.7708 17.2083 71.0625 14.375C68.3542 11.5417 65.0417 10.125 61.125 10.125C59.2917 10.125 57.5208 10.4792 55.8125 11.1875C54.1042 11.8958 52.625 12.9167 51.375 14.25L48.625 17C48.125 17.5 47.5625 17.875 46.9375 18.125C46.3125 18.375 45.6667 18.5 45 18.5C44.3333 18.5 43.7083 18.375 43.125 18.125C42.5417 17.875 42 17.5 41.5 17L38.75 14.25C37.4167 12.9167 35.9375 11.875 34.3125 11.125C32.6875 10.375 30.9167 10 29 10C25.0833 10 21.7708 11.4167 19.0625 14.25C16.3542 17.0833 15 20.5 15 24.5C15 26.4167 15.3333 28.2917 16 30.125C16.6667 31.9583 17.7083 33.5833 19.125 35Z" fill="#352D74"/>
</svg>
