<svg width="110" height="115" viewBox="0 0 110 115" fill="none" xmlns="http://www.w3.org/2000/svg">
<path d="M15 80V45H25V80H15ZM45 80V45H55V80H45ZM0 35V25L50 0L100 25V35H0ZM22.375 25H77.625L50 11.25L22.375 25ZM0 100V90H60.25C60.4167 91.75 60.625 93.4375 60.875 95.0625C61.125 96.6875 61.5 98.3333 62 100H0ZM75 61.25V45H85V56.25L75 61.25ZM90 115C84.25 113.583 79.4792 110.271 75.6875 105.062C71.8958 99.8542 70 94.0833 70 87.75V75L90 65L110 75V87.75C110 94.0833 108.104 99.8542 104.313 105.062C100.521 110.271 95.75 113.583 90 115ZM86.375 100L103.75 82.75L98.5 77.5L86.375 89.375L81.5 84.5L76.25 89.875L86.375 100Z" fill="#352D74"/>
</svg>
