<svg width="80" height="90" viewBox="0 0 80 90" fill="none" xmlns="http://www.w3.org/2000/svg">
<path d="M0 90V65C0 62.25 0.979167 59.8958 2.9375 57.9375C4.89583 55.9792 7.25 55 10 55H70C72.75 55 75.1042 55.9792 77.0625 57.9375C79.0208 59.8958 80 62.25 80 65V90H0ZM25 50C18.0833 50 12.1875 47.5625 7.3125 42.6875C2.4375 37.8125 0 31.9167 0 25C0 18.0833 2.4375 12.1875 7.3125 7.3125C12.1875 2.4375 18.0833 0 25 0H55C61.9167 0 67.8125 2.4375 72.6875 7.3125C77.5625 12.1875 80 18.0833 80 25C80 31.9167 77.5625 37.8125 72.6875 42.6875C67.8125 47.5625 61.9167 50 55 50H25ZM10 80H70V65H10V80ZM25 40H55C59.1667 40 62.7083 38.5417 65.625 35.625C68.5417 32.7083 70 29.1667 70 25C70 20.8333 68.5417 17.2917 65.625 14.375C62.7083 11.4583 59.1667 10 55 10H25C20.8333 10 17.2917 11.4583 14.375 14.375C11.4583 17.2917 10 20.8333 10 25C10 29.1667 11.4583 32.7083 14.375 35.625C17.2917 38.5417 20.8333 40 25 40ZM25 30C26.4167 30 27.6042 29.5208 28.5625 28.5625C29.5208 27.6042 30 26.4167 30 25C30 23.5833 29.5208 22.3958 28.5625 21.4375C27.6042 20.4792 26.4167 20 25 20C23.5833 20 22.3958 20.4792 21.4375 21.4375C20.4792 22.3958 20 23.5833 20 25C20 26.4167 20.4792 27.6042 21.4375 28.5625C22.3958 29.5208 23.5833 30 25 30ZM55 30C56.4167 30 57.6042 29.5208 58.5625 28.5625C59.5208 27.6042 60 26.4167 60 25C60 23.5833 59.5208 22.3958 58.5625 21.4375C57.6042 20.4792 56.4167 20 55 20C53.5833 20 52.3958 20.4792 51.4375 21.4375C50.4792 22.3958 50 23.5833 50 25C50 26.4167 50.4792 27.6042 51.4375 28.5625C52.3958 29.5208 53.5833 30 55 30Z" fill="#352D74"/>
</svg>
